<svg xmlns="http://www.w3.org/2000/svg" width="21.894" height="16.42" viewBox="0 0 21.894 16.42"><defs><style>.a{fill:#fff;}</style></defs><g transform="translate(0 0)"><path class="a" d="M7.075,65.332c3,2.545,8.277,7.022,9.827,8.418a.915.915,0,0,0,1.324,0c1.551-1.4,6.823-5.875,9.828-8.419a.456.456,0,0,0,.064-.629,1.811,1.811,0,0,0-1.432-.7H8.443a1.811,1.811,0,0,0-1.432.7A.456.456,0,0,0,7.075,65.332Z" transform="translate(-6.618 -64)"/><path class="a" d="M21.629,126.454a.454.454,0,0,0-.486.066c-3.332,2.825-7.585,6.446-8.923,7.651a1.847,1.847,0,0,1-2.546,0c-1.426-1.285-6.2-5.345-8.922-7.651a.456.456,0,0,0-.751.348v11.471a1.826,1.826,0,0,0,1.824,1.824H20.069a1.826,1.826,0,0,0,1.824-1.824V126.868A.456.456,0,0,0,21.629,126.454Z" transform="translate(0 -123.743)"/></g></svg>