<svg xmlns="http://www.w3.org/2000/svg" width="146.402" height="163.915" viewBox="0 0 146.402 163.915"><defs><style>.a{fill:#fff;}</style></defs><g transform="translate(-27.352)"><g transform="translate(27.352)"><g transform="translate(109.587 26.238)"><path class="a" d="M372.856,110.25a3.2,3.2,0,0,1-3.2-3.2V85.157a3.2,3.2,0,0,1,6.4,0v21.891A3.2,3.2,0,0,1,372.856,110.25Z" transform="translate(-369.655 -81.956)"/></g><g transform="translate(109.573 15.936)"><circle class="a" cx="3.201" cy="3.201" r="3.201"/></g><path class="a" d="M173.754,33.634A33.61,33.61,0,0,0,119.7,6.93H39A11.664,11.664,0,0,0,27.352,18.581V135.042A11.665,11.665,0,0,0,39,146.693H49.162v5.571a11.665,11.665,0,0,0,11.651,11.651h83.706a11.664,11.664,0,0,0,11.651-11.651V107.859a3.2,3.2,0,0,0-6.4,0v44.405a5.254,5.254,0,0,1-5.248,5.248H60.813a5.254,5.254,0,0,1-5.248-5.248v-5.571h67.145a11.665,11.665,0,0,0,11.651-11.651V66.772a33.749,33.749,0,0,0,15.406-.913V78.914a3.2,3.2,0,1,0,6.4,0V63.187a33.664,33.664,0,0,0,17.584-29.553Zm-45.8,101.408a5.255,5.255,0,0,1-5.248,5.248H39a5.254,5.254,0,0,1-5.248-5.248V18.581A5.254,5.254,0,0,1,39,13.333h74.329a33.457,33.457,0,0,0-6.8,18.88H52.011a3.2,3.2,0,0,0-3.2,3.2V48.936a3.2,3.2,0,0,0,3.2,3.2H109.7a3.188,3.188,0,0,0,1.937-.652,33.824,33.824,0,0,0,16.32,13.5ZM106.5,38.616v7.118H55.213V38.616Zm33.627,22.248a27.231,27.231,0,1,1,27.224-27.231A27.258,27.258,0,0,1,140.127,60.864Z" transform="translate(-27.352)"/><g transform="translate(122.421 90.134)"><path class="a" d="M412.936,287.937a3.2,3.2,0,1,1,3.119-2.475A3.232,3.232,0,0,1,412.936,287.937Z" transform="translate(-409.742 -281.541)"/></g><g transform="translate(21.458 63.272)"><path class="a" d="M155.268,204.036H97.578a3.2,3.2,0,1,1,0-6.4h57.69a3.2,3.2,0,1,1,0,6.4Z" transform="translate(-94.377 -197.633)"/><g transform="translate(0 15.185)"><path class="a" d="M155.268,251.466H97.578a3.2,3.2,0,1,1,0-6.4h57.69a3.2,3.2,0,0,1,0,6.4Z" transform="translate(-94.377 -245.063)"/></g><g transform="translate(0 30.369)"><path class="a" d="M155.268,298.9H97.578a3.2,3.2,0,1,1,0-6.4h57.69a3.2,3.2,0,1,1,0,6.4Z" transform="translate(-94.377 -292.493)"/></g><g transform="translate(0 45.554)"><path class="a" d="M155.268,346.326H97.578a3.2,3.2,0,0,1,0-6.4h57.69a3.2,3.2,0,0,1,0,6.4Z" transform="translate(-94.377 -339.923)"/></g></g></g></g></svg>