<svg xmlns="http://www.w3.org/2000/svg" width="22.23" height="22.23" viewBox="0 0 22.23 22.23"><defs><style>.a{opacity:0.5;}.b{fill:#fff;}</style></defs><g class="a"><path class="b" d="M15.773,0H6.458A6.465,6.465,0,0,0,0,6.458v9.315A6.465,6.465,0,0,0,6.458,22.23h9.315a6.465,6.465,0,0,0,6.458-6.458V6.458A6.465,6.465,0,0,0,15.773,0Zm4.721,15.773a4.726,4.726,0,0,1-4.721,4.721H6.458a4.726,4.726,0,0,1-4.721-4.721V6.458A4.726,4.726,0,0,1,6.458,1.737h9.315a4.726,4.726,0,0,1,4.721,4.721Z"/><g transform="translate(5.123 5.123)"><path class="b" d="M123.992,118a5.992,5.992,0,1,0,5.992,5.992A6,6,0,0,0,123.992,118Zm0,10.247a4.255,4.255,0,1,1,4.255-4.255A4.26,4.26,0,0,1,123.992,128.247Z" transform="translate(-118 -118)"/></g><g transform="translate(16.337 4.456)"><g transform="translate(0 0)"><circle class="b" cx="1" cy="1" r="1" transform="translate(-0.338 -0.456)"/></g></g></g></svg>