<svg xmlns="http://www.w3.org/2000/svg" xmlns:xlink="http://www.w3.org/1999/xlink" width="574.404" height="404.331" viewBox="0 0 574.404 404.331">
  <defs>
    <clipPath id="clip-path">
      <path id="path24" d="M0-74.48H574.4V329.851H0Z" transform="translate(0 74.48)" fill="#fff"/>
    </clipPath>
  </defs>
  <g id="layer1" transform="translate(-5.078 9.37)">
    <g id="g22" transform="translate(5.078 -9.37)" clip-path="url(#clip-path)">
      <g id="g28" transform="translate(209.518 113.264)">
        <path id="path30" d="M11.095,36.8a18.127,18.127,0,0,1-6.939-3.938A18.432,18.432,0,0,1-.532,25.71,30.325,30.325,0,0,1-2.237,14.856,30.338,30.338,0,0,1-.532,4,18.452,18.452,0,0,1,4.155-3.146a18.146,18.146,0,0,1,6.939-3.938,28.561,28.561,0,0,1,8.462-1.224H38.448V-.366H21.012a17.466,17.466,0,0,0-5.086.728A10.031,10.031,0,0,0,11.75,2.844,11.945,11.945,0,0,0,8.95,7.51a22.593,22.593,0,0,0-1.016,7.346A22.583,22.583,0,0,0,8.95,22.2a11.949,11.949,0,0,0,2.8,4.668,10,10,0,0,0,4.177,2.479,17.378,17.378,0,0,0,5.086.729H38.448V38.02H19.557A28.475,28.475,0,0,1,11.095,36.8" transform="translate(2.237 8.308)" fill="#fff"/>
      </g>
      <g id="g32" transform="translate(251.51 113.265)">
        <path id="path34" d="M30.777,23.756,21.913,4.827,13.121,23.756ZM16.463-5.364H27.435L50.1,40.963H38.768L34.481,31.7H9.415L5.129,40.963H-6.206Z" transform="translate(6.206 5.364)" fill="#fff"/>
      </g>
      <g id="g36" transform="translate(296.483 113.265)">
        <path id="path38" d="M0,0H11.336l16.78,36.2L44.972,0H56.306L33.637,46.328H22.67Z" fill="#fff"/>
      </g>
      <path id="path40" d="M59.54-53.616H69.712V-7.289H59.54Z" transform="translate(295.283 166.881)" fill="#fff"/>
      <g id="g42" transform="translate(372.84 113.264)">
        <path id="path44" d="M19.348,31.315a17.392,17.392,0,0,0,5.086-.729,9.995,9.995,0,0,0,4.177-2.479,11.962,11.962,0,0,0,2.8-4.668,22.519,22.519,0,0,0,1.018-7.345,22.528,22.528,0,0,0-1.018-7.346,11.959,11.959,0,0,0-2.8-4.666A10.035,10.035,0,0,0,24.434,1.6,17.5,17.5,0,0,0,19.348.872H6.27V31.315ZM-3.9-7.071H20.8a28.562,28.562,0,0,1,8.467,1.224A18.126,18.126,0,0,1,36.2-1.909,18.4,18.4,0,0,1,40.888,5.24,30.315,30.315,0,0,1,42.6,16.093a30.305,30.305,0,0,1-1.709,10.854A18.384,18.384,0,0,1,36.2,34.1a18.107,18.107,0,0,1-6.936,3.938A28.476,28.476,0,0,1,20.8,39.257H-3.9Z" transform="translate(3.901 7.071)" fill="#fff"/>
      </g>
      <g id="g46" transform="translate(422.825 113.264)">
        <path id="path48" d="M11.1,36.8a18.079,18.079,0,0,1-6.938-3.938A18.4,18.4,0,0,1-.53,25.71,30.29,30.29,0,0,1-2.237,14.856,30.3,30.3,0,0,1-.53,4,18.421,18.421,0,0,1,4.158-3.146,18.1,18.1,0,0,1,11.1-7.084a28.55,28.55,0,0,1,8.462-1.224H38.45V-.366H21.013A17.456,17.456,0,0,0,16.507.2,10.958,10.958,0,0,0,12.694,2.05,10.893,10.893,0,0,0,9.787,5.491a15.2,15.2,0,0,0-1.633,5.394h30.3v7.941H8.154a15.2,15.2,0,0,0,1.633,5.4,10.55,10.55,0,0,0,6.72,5.293,17.341,17.341,0,0,0,4.506.564H38.45V38.02H19.558A28.465,28.465,0,0,1,11.1,36.8" transform="translate(2.237 8.308)" fill="#fff"/>
      </g>
      <g id="g50" transform="translate(465.546 113.265)">
        <path id="path52" d="M30.774,23.756,21.91,4.827,13.118,23.756ZM16.461-5.364H27.432L50.1,40.963H38.765L34.48,31.7H9.415L5.129,40.963H-6.205Z" transform="translate(6.205 5.364)" fill="#fff"/>
      </g>
      <g id="g54" transform="translate(210.623 167.59)">
        <path id="path56" d="M17.395,5.745c-.106-2.162-1.148-2.236-3.226-2.259H7c-1.2,0-2.854-.17-3.6,1.213-.426.826-.48,6.606.134,7.48,1.013,1.48,2.583,1.286,4.129,1.286h5.6c1.865,0,3.358.124,4.1-1.043a3.67,3.67,0,0,0,.319-1.725h6.531c0,.825.218,4.541-1.332,5.974-1.625,1.578-4.1,1.578-5.917,1.578H6.25c-2.638,0-5.812.026-7.785-1.749-2-1.845-1.972-3.958-1.972-6.969V7.3c0-2.476-.106-4.953,1.894-6.8C.332-1.249,4.144-1.3,6.411-1.3H16.886c2.693,0,4.906.218,6.318,2.452.508.825.693,3.254.669,4.59Z" transform="translate(3.507 1.297)" fill="#fff"/>
      </g>
      <g id="g58" transform="translate(237.502 167.59)">
        <path id="path60" d="M16.527,9.727,12.341,2.49,8.287,9.727ZM16.6-2.2,28.229,17.352H21.112l-2.132-3.52H5.81l-1.947,3.52h-7.2L8.1-2.2Z" transform="translate(3.332 2.196)" fill="#fff"/>
      </g>
      <g id="g62" transform="translate(270.028 167.59)">
        <path id="path64" d="M8.472,0l7.413,12.506L23.295,0H33.746V19.548H27.24V5.464L18.363,19.548h-4.93L4.8,5.535V19.548h-6.5V0Z" transform="translate(1.708)" fill="#fff"/>
      </g>
      <g id="g66" transform="translate(306.394 167.59)">
        <path id="path68" d="M16.527,9.727,12.342,2.49,8.288,9.727ZM16.606-2.2,28.229,17.352H21.112l-2.132-3.52H5.811l-1.947,3.52h-7.2L8.1-2.2Z" transform="translate(3.333 2.196)" fill="#fff"/>
      </g>
      <g id="g70" transform="translate(338.893 167.589)">
        <path id="path72" d="M13.177,7.706c.907,0,2.932.075,3.652-.922a3.819,3.819,0,0,0,0-2.768c-.639-1.117-2.693-.971-3.6-.971H3.846V7.706ZM22.216-.04c1.3,1.529,1.382,5.949.9,7.455-.529,1.871-1.812,2.21-3.333,2.744a8.572,8.572,0,0,1,1.734.607c2,1.117,1.762,3.958,1.762,5.563v1.479H16.777c0-2.234.131-3.885-.64-4.516-.693-.632-2.562-.561-3.308-.561H3.846v5.077h-6.5V-1.739H15.949c2.32,0,4.746-.1,6.268,1.7" transform="translate(2.657 1.74)" fill="#fff"/>
      </g>
      <g id="g74" transform="translate(365.689 167.59)">
        <path id="path76" d="M16.527,9.727,12.342,2.49,8.288,9.727ZM16.609-2.2,28.23,17.352H21.111l-2.132-3.52H5.812l-1.948,3.52h-7.2L8.1-2.2Z" transform="translate(3.333 2.196)" fill="#fff"/>
      </g>
      <g id="g78" transform="translate(208.866 202.671)">
        <path id="path80" d="M5.835,0l8.211,14.376L22.442,0h7.065L18.1,19.549h-8L-1.176,0Z" transform="translate(1.176)" fill="#fff"/>
      </g>
      <g id="g82" transform="translate(240.725 202.671)">
        <path id="path84" d="M19.324,0V4.784H2.609V7.867H18.471v3.909H2.609v2.99H19.722v4.783H-3.9V0Z" transform="translate(3.896)" fill="#fff"/>
      </g>
      <g id="g86" transform="translate(266.479 202.671)">
        <path id="path88" d="M8.388,0,20.731,14.134V0h6.5V19.549h-10.1L4.814,5.609v13.94H-1.691V0Z" transform="translate(1.691)" fill="#fff"/>
      </g>
      <g id="g90" transform="translate(297.729 202.671)">
        <path id="path92" d="M19.322,0V4.784H2.605V7.867H18.469v3.909H2.605v2.99H19.723v4.783H-3.9V0Z" transform="translate(3.896)" fill="#fff"/>
      </g>
      <g id="g94" transform="translate(323.536 202.671)">
        <path id="path96" d="M20.607,0V4.687L5.787,14.766H21.035v4.783H-4.155V14.884l14.821-10.1H-3.808V0Z" transform="translate(4.155)" fill="#fff"/>
      </g>
      <g id="g98" transform="translate(350.94 202.671)">
        <path id="path100" d="M18.372,10.994a5.758,5.758,0,0,0,.319-2.38V5.968a5.838,5.838,0,0,0-.319-2.379C17.44,2.131,15.465,2.3,14.4,2.3H7.1c-1.066,0-3.041-.17-3.972,1.287A5.385,5.385,0,0,0,2.8,5.968V8.615a5.7,5.7,0,0,0,.32,2.38c.931,1.483,2.906,1.289,3.972,1.289h7.3c1.066,0,3.041.194,3.973-1.289M-1.943,15.318C-3.673,13.714-3.7,10.412-3.7,9.1V5.069C-3.7,3.66-3.834.892-1.943-.783,0-2.555,3.071-2.482,5.629-2.482h10.5c2.558,0,5.6-.025,7.572,1.7C25.41.675,25.2,3.66,25.2,5.069V9.1c0,1.675.239,4.613-1.492,6.217-1.813,1.675-6.24,1.749-7.732,1.749H5.788c-2,0-5.917-.074-7.731-1.749" transform="translate(3.704 2.483)" fill="#fff"/>
      </g>
      <g id="g102" transform="translate(382.297 202.671)">
        <path id="path104" d="M5.414,0V14.766H20.075v4.783H-1.092V0Z" transform="translate(1.092)" fill="#fff"/>
      </g>
      <g id="g106" transform="translate(403.653 202.671)">
        <path id="path108" d="M16.527,9.727,12.344,2.49,8.29,9.727ZM16.608-2.2,28.231,17.353H21.114l-2.132-3.522H5.813L3.866,17.353h-7.2L8.106-2.2Z" transform="translate(3.333 2.196)" fill="#fff"/>
      </g>
      <g id="g110" transform="translate(436.179 202.671)">
        <path id="path112" d="M8.386,0,20.731,14.134V0h6.5V19.549h-10.1L4.815,5.609v13.94H-1.691V0Z" transform="translate(1.691)" fill="#fff"/>
      </g>
      <g id="g114" transform="translate(466.094 202.671)">
        <path id="path116" d="M16.527,9.727,12.342,2.49,8.29,9.727ZM16.608-2.2,28.232,17.353H21.112l-2.132-3.522H5.811L3.863,17.353h-7.2L8.1-2.2Z" transform="translate(3.333 2.196)" fill="#fff"/>
      </g>
      <g id="g118" transform="translate(210.678 237.749)">
        <path id="path120" d="M13.576,12.047c2.348,0,4.026.122,5.092-1.432.59-.9.561-6.29.053-7.189-.907-1.53-3.251-1.359-5.544-1.359H3.768v9.98Zm2.4-14.765c2.424,0,5.732-.144,7.864,1.8,1.837,1.7,1.837,3.861,1.837,6.12V9.062c0,1.845.057,4.3-1.759,5.95-1.973,1.747-5.891,1.82-8.048,1.82H-2.737V-2.718Z" transform="translate(2.737 2.72)" fill="#fff"/>
      </g>
      <g id="g122" transform="translate(241.471 237.752)">
        <path id="path124" d="M19.325,0V4.785H2.61V7.869H18.472V11.78H2.61v2.986H19.726V19.55H-3.9V0Z" transform="translate(3.897)" fill="#fff"/>
      </g>
      <g id="g126" transform="translate(281.118 237.752)">
        <path id="path128" d="M5.412,0V14.765H20.075V19.55H-1.091V0Z" transform="translate(1.091)" fill="#fff"/>
      </g>
      <g id="g130" transform="translate(302.234 237.752)">
        <path id="path132" d="M16.527,9.728,12.342,2.491,8.29,9.728ZM16.6-2.2l11.624,19.55H21.11l-2.131-3.522H5.811L3.863,17.353h-7.2L8.1-2.2Z" transform="translate(3.333 2.197)" fill="#fff"/>
      </g>
      <path id="path134" d="M64.98-11.135h-6.5v-19.55h6.5Z" transform="translate(290.014 268.437)" fill="#fff"/>
      <g id="g136" transform="translate(357.793 237.752)">
        <path id="path138" d="M8.386,0,20.73,14.133V0h6.5V19.55h-10.1L4.815,5.61V19.55H-1.691V0Z" transform="translate(1.691)" fill="#fff"/>
      </g>
      <g id="g140" transform="translate(389.788 237.749)">
        <path id="path142" d="M13.576,12.047c2.348,0,4.027.122,5.092-1.432.59-.9.561-6.29.054-7.189-.906-1.53-3.252-1.359-5.544-1.359H3.768v9.98Zm2.4-14.765c2.424,0,5.732-.144,7.863,1.8,1.838,1.7,1.838,3.861,1.838,6.12V9.062c0,1.845.054,4.3-1.759,5.95-1.972,1.747-5.891,1.82-8.049,1.82H-2.737V-2.718Z" transform="translate(2.737 2.72)" fill="#fff"/>
      </g>
      <g id="g144" transform="translate(421.483 237.752)">
        <path id="path146" d="M5.417,0V9.594c0,1.238-.16,3.448.853,4.394,1.041.924,2.747.778,3.681.778h5.276c.587,0,2.373.146,3.333-.752.854-.826.693-2.5.693-4.275V0h6.506V11.584c0,2.21.238,4.371-1.68,6.169-2.053,1.893-4.693,1.8-7.49,1.8h-9.6c-2.3,0-4.133.17-6.265-1.82-2.029-1.92-1.812-5.248-1.812-6.777V0Z" transform="translate(1.092)" fill="#fff"/>
      </g>
      <g id="g148" transform="translate(451.133 237.747)">
        <path id="path150" d="M16.219,5.513c-.158-1.749-.96-1.944-2.72-1.968H6.223c-.906,0-2.239-.145-2.824.873a1.852,1.852,0,0,0,.024,1.457c.614.874,2.534.8,3.866.8l7.971.168c1.975.075,6.079-.243,7.571,2.259a7.919,7.919,0,0,1-.238,6.678c-1.655,2.5-6.532,2.526-8.745,2.526H3.131c-1.279,0-4.185-.17-5.625-2.089-.693-.972-.774-3.059-.746-4.347H3.185c.16,1.8,1.3,1.652,2.533,1.652h7.622c.907,0,2.8.048,3.386-.606a1.5,1.5,0,0,0,0-1.506c-.427-.8-2.108-.68-3.945-.729L4.3,10.514c-2.079-.024-5.571.026-6.9-2.308-.907-1.528-.907-5.658.078-7.187C-.895-1.458,2.225-1.24,5.235-1.24h11.09c1.734,0,4.293.292,5.6,2.137.747,1,.668,3.618.668,4.616Z" transform="translate(3.27 1.245)" fill="#fff"/>
      </g>
      <g id="g152" transform="translate(478.678 237.752)">
        <path id="path154" d="M20.61,3.9H11.386V18.669H4.88V3.9H-4.156V-.881H20.61Z" transform="translate(4.156 0.881)" fill="#fff"/>
      </g>
      <g id="g156" transform="translate(505.685 237.751)">
        <path id="path158" d="M13.176,7.707c.91,0,2.933.074,3.653-.922a3.821,3.821,0,0,0,0-2.769c-.64-1.116-2.693-.971-3.6-.971H3.849V7.707ZM22.217-.04c1.3,1.532,1.386,5.95.907,7.456-.534,1.87-1.816,2.21-3.333,2.744a8.772,8.772,0,0,1,1.73.609c2,1.117,1.762,3.957,1.762,5.561v1.481H16.776c0-2.235.135-3.886-.639-4.518-.693-.63-2.559-.56-3.306-.56H3.849v5.077H-2.657V-1.739H15.952c2.317,0,4.743-.1,6.265,1.7" transform="translate(2.657 1.74)" fill="#fff"/>
      </g>
      <path id="path160" d="M96.217-11.135h-6.5v-19.55h6.5Z" transform="translate(444.927 268.437)" fill="#fff"/>
      <g id="g162" transform="translate(542.664 237.752)">
        <path id="path164" d="M16.528,9.728,12.342,2.491,8.29,9.728ZM16.609-2.2l11.62,19.55H21.114L18.98,13.831H5.811L3.867,17.353h-7.2L8.1-2.2Z" transform="translate(3.333 2.197)" fill="#fff"/>
      </g>
      <g id="g166" transform="translate(210.678 272.831)">
        <path id="path168" d="M13.576,12.048c2.348,0,4.026.121,5.092-1.433.59-.9.561-6.29.053-7.187-.907-1.531-3.251-1.359-5.544-1.359H3.768v9.979Zm2.4-14.765c2.424,0,5.732-.146,7.864,1.8,1.837,1.7,1.837,3.86,1.837,6.118V9.06c0,1.845.057,4.3-1.759,5.95-1.973,1.747-5.891,1.821-8.048,1.821H-2.737V-2.718Z" transform="translate(2.737 2.72)" fill="#fff"/>
      </g>
      <g id="g170" transform="translate(241.471 272.834)">
        <path id="path172" d="M19.325,0V4.785H2.61V7.869H18.472v3.909H2.61v2.988H19.726v4.784H-3.9V0Z" transform="translate(3.897)" fill="#fff"/>
      </g>
      <g id="g174" transform="translate(279.627 272.834)">
        <path id="path176" d="M16.525,9.727,12.34,2.49,8.289,9.727ZM16.607-2.2l11.62,19.549H21.113l-2.135-3.521H5.81L3.863,17.353h-7.2L8.1-2.2Z" transform="translate(3.332 2.196)" fill="#fff"/>
      </g>
      <g id="g178" transform="translate(312.606 272.834)">
        <path id="path180" d="M5.412,0V14.765H20.073v4.784H-1.091V0Z" transform="translate(1.091)" fill="#fff"/>
      </g>
      <path id="path182" d="M62.809-4.673H56.3V-24.223h6.506Z" transform="translate(279.229 297.057)" fill="#fff"/>
      <g id="g184" transform="translate(344.731 272.834)">
        <path id="path186" d="M8.476,0l7.409,12.507L23.3,0h10.45V19.549H27.241V5.465L18.364,19.549H13.433L4.794,5.536V19.549h-6.5V0Z" transform="translate(1.709)" fill="#fff"/>
      </g>
      <g id="g188" transform="translate(382.908 272.834)">
        <path id="path190" d="M19.325,0V4.785H2.609V7.869H18.471v3.909H2.609v2.988H19.723v4.784H-3.9V0Z" transform="translate(3.897)" fill="#fff"/>
      </g>
      <g id="g192" transform="translate(408.903 272.834)">
        <path id="path194" d="M8.386,0,20.731,14.134V0h6.5V19.549h-10.1L4.816,5.611V19.549H-1.691V0Z" transform="translate(1.691)" fill="#fff"/>
      </g>
      <g id="g196" transform="translate(439.512 272.834)">
        <path id="path198" d="M20.608,3.9H11.386V18.668h-6.5V3.9H-4.155V-.881H20.608Z" transform="translate(4.155 0.881)" fill="#fff"/>
      </g>
      <g id="g200" transform="translate(465.077 272.834)">
        <path id="path202" d="M18.372,10.994a5.761,5.761,0,0,0,.32-2.379V5.97a5.858,5.858,0,0,0-.32-2.382C17.44,2.131,15.468,2.3,14.4,2.3H7.1c-1.067,0-3.039-.172-3.973,1.285A5.383,5.383,0,0,0,2.8,5.97V8.615a5.671,5.671,0,0,0,.321,2.379c.934,1.483,2.906,1.288,3.973,1.288h7.3c1.066,0,3.038.194,3.97-1.288M-1.944,15.319C-3.674,13.715-3.7,10.413-3.7,9.1V5.071c0-1.409-.131-4.177,1.759-5.852C0-2.555,3.069-2.482,5.632-2.482h10.5c2.559,0,5.6-.025,7.572,1.7C25.41.675,25.2,3.662,25.2,5.071V9.1c0,1.677.242,4.614-1.491,6.218-1.813,1.673-6.24,1.747-7.733,1.747H5.789c-2,0-5.917-.074-7.733-1.747" transform="translate(3.704 2.483)" fill="#fff"/>
      </g>
      <g id="g204" transform="translate(496.511 272.829)">
        <path id="path206" d="M16.219,5.511c-.16-1.748-.96-1.942-2.718-1.965H6.223c-.906,0-2.242-.147-2.824.873a1.835,1.835,0,0,0,.024,1.457c.615.874,2.534.8,3.866.8l7.971.17c1.972.074,6.079-.242,7.572,2.258a7.915,7.915,0,0,1-.242,6.679c-1.651,2.5-6.531,2.525-8.744,2.525H3.132c-1.282,0-4.186-.17-5.625-2.088-.693-.971-.775-3.061-.747-4.347H3.184c.161,1.8,1.3,1.651,2.532,1.651h7.625c.906,0,2.8.049,3.386-.608a1.5,1.5,0,0,0,0-1.506c-.426-.8-2.107-.68-3.948-.729L4.3,10.515c-2.081-.026-5.571.022-6.907-2.308-.9-1.531-.9-5.658.081-7.189C-.895-1.458,2.223-1.24,5.236-1.24H16.325c1.734,0,4.293.293,5.6,2.138.746.995.664,3.618.664,4.613Z" transform="translate(3.27 1.244)" fill="#fff"/>
      </g>
      <g id="Grupo_1" data-name="Grupo 1">
        <g id="g208" transform="translate(125.949 209.529)">
          <path id="path210" d="M48.1,0l-.334,66.828L-9.7,88.669v-66.7Z" transform="translate(9.699)" fill="#fff"/>
        </g>
        <g id="g212" transform="translate(63.04 209.522)">
          <path id="path214" d="M48.241,17.925-9.57-4.047-9.727,62.6,48.228,84.629Z" transform="translate(9.727 4.047)" fill="#fff"/>
        </g>
        <g id="g216" transform="translate(125.864 107.449)">
          <path id="path218" d="M48.239,17.925-9.569-4.047-9.727,66.1,48.227,88.125Z" transform="translate(9.727 4.047)" fill="#fff"/>
        </g>
        <g id="g220" transform="translate(0.305 110.411)">
          <path id="path222" d="M48.239,17.927-9.57-4.048-9.727,66.1,48.228,88.128Z" transform="translate(9.727 4.048)" fill="#fff"/>
        </g>
        <g id="g224" transform="translate(63.04 181.616)">
          <path id="path226" d="M50.136,37.557l60.231-23.232-60-22.805L-10.109,14.325Z" transform="translate(10.109 8.48)" fill="#fff"/>
        </g>
        <g id="g228" transform="translate(63.3 110.484)">
          <path id="path230" d="M48.1,0l-.333,66.828L-9.7,88.669v-66.7Z" transform="translate(9.698)" fill="#fff"/>
        </g>
        <g id="g232" transform="translate(0.369 279.19)">
          <path id="path234" d="M50.339,35.762l56.326-21.726L48.488-8.075-10.15,14.036Z" transform="translate(10.15 8.075)" fill="#fff"/>
        </g>
        <g id="g236" transform="translate(0.391 206.291)">
          <path id="path238" d="M48.1,0l-.332,68.607L-9.7,90.447V21.968Z" transform="translate(9.698)" fill="#fff"/>
        </g>
        <g id="g240" transform="translate(0.39 82.572)">
          <path id="path242" d="M50.136,37.556l60.232-23.233-60-22.8-60.479,22.8Z" transform="translate(10.109 8.48)" fill="#fff"/>
        </g>
      </g>
    </g>
  </g>
</svg>
