<svg xmlns="http://www.w3.org/2000/svg" width="183.699" height="240.585" viewBox="0 0 183.699 240.585">
  <g id="Grupo_2" data-name="Grupo 2" transform="translate(-0.193 -82.507)">
    <g id="g208" transform="translate(125.949 209.529)">
      <path id="path210" d="M48.1,0l-.334,66.828L-9.7,88.669v-66.7Z" transform="translate(9.699)" fill="#fff" stroke="#001550" stroke-width="0.122"/>
    </g>
    <g id="g212" transform="translate(63.04 209.522)">
      <path id="path214" d="M48.241,17.925-9.57-4.047-9.727,62.6,48.228,84.629Z" transform="translate(9.727 4.047)" fill="#fff" stroke="#001550" stroke-width="0.122"/>
    </g>
    <g id="g216" transform="translate(125.864 107.449)">
      <path id="path218" d="M48.239,17.925-9.569-4.047-9.727,66.1,48.227,88.125Z" transform="translate(9.727 4.047)" fill="#fff" stroke="#001550" stroke-width="0.122"/>
    </g>
    <g id="g220" transform="translate(0.305 110.411)">
      <path id="path222" d="M48.239,17.927-9.57-4.048-9.727,66.1,48.228,88.128Z" transform="translate(9.727 4.048)" fill="#fff" stroke="#001550" stroke-width="0.122"/>
    </g>
    <g id="g224" transform="translate(63.04 181.616)">
      <path id="path226" d="M50.136,37.557l60.231-23.232-60-22.805L-10.109,14.325Z" transform="translate(10.109 8.48)" fill="#fff" stroke="#001550" stroke-width="0.122"/>
    </g>
    <g id="g228" transform="translate(63.3 110.484)">
      <path id="path230" d="M48.1,0l-.333,66.828L-9.7,88.669v-66.7Z" transform="translate(9.698)" fill="#fff" stroke="#001550" stroke-width="0.122"/>
    </g>
    <g id="g232" transform="translate(0.369 279.19)">
      <path id="path234" d="M50.339,35.762l56.326-21.726L48.488-8.075-10.15,14.036Z" transform="translate(10.15 8.075)" fill="#fff" stroke="#001550" stroke-width="0.122"/>
    </g>
    <g id="g236" transform="translate(0.391 206.291)">
      <path id="path238" d="M48.1,0l-.332,68.607L-9.7,90.447V21.968Z" transform="translate(9.698)" fill="#fff" stroke="#001550" stroke-width="0.122"/>
    </g>
    <g id="g240" transform="translate(0.39 82.572)">
      <path id="path242" d="M50.136,37.556l60.232-23.233-60-22.8-60.479,22.8Z" transform="translate(10.109 8.48)" fill="#fff" stroke="#001550" stroke-width="0.122"/>
    </g>
  </g>
</svg>
