<svg xmlns="http://www.w3.org/2000/svg" width="157.448" height="155.915" viewBox="0 0 157.448 155.915"><defs><style>.a{fill:#fff;}</style></defs><g transform="translate(0 -2.493)"><path class="a" d="M156.152,21.6c-.093-.088-18.588-17.726-18.588-17.726a3.771,3.771,0,0,0-2.8-1.38H60.3a3.949,3.949,0,0,0-3.944,3.944V18.548l-26.242,4.5a3.887,3.887,0,0,0-3.154,4.483L28.3,35.295c-8.53,2.87-17.287,5.829-25.741,8.866A3.9,3.9,0,0,0,.223,49.122L17.04,95.869a2.306,2.306,0,1,0,4.341-1.561L4.813,48.252C12.777,45.4,21.026,42.609,29.087,39.9l7.925,46.2,9.119,53.21a3.907,3.907,0,0,0,4.484,3.162l24.7-4.238,19.3-3.308L65.586,145.358l-22.89,8.23L24.919,104.142a2.306,2.306,0,0,0-4.341,1.561l18.029,50.148a3.9,3.9,0,0,0,3.65,2.557,3.815,3.815,0,0,0,1.311-.233L67.146,149.7l53.537-19.242L130.91,128.7H153.5a3.953,3.953,0,0,0,3.944-3.953V24.2a3.318,3.318,0,0,0-1.3-2.6Zm-6.111.546H138.214c-.553,0-1.846.013-2.174-.313a1.3,1.3,0,0,1-.164-.794L135.849,8.61Zm2.794,101.945H60.974V79.141a2.306,2.306,0,0,0-4.613,0v45.609A3.953,3.953,0,0,0,60.3,128.7h43.3l-29.074,4.984L50.552,137.8,41.558,85.319,31.635,27.466,56.36,23.228V68.439a2.306,2.306,0,0,0,4.613,0V7.105h70.26l.03,13.938a5.492,5.492,0,0,0,1.527,4.062,7.053,7.053,0,0,0,5.124,1.654l.333,0h14.588Z" transform="translate(0)"/><path class="a" d="M234.43,113.755a2.306,2.306,0,0,0,2.306,2.306h65.943a2.306,2.306,0,0,0,0-4.613H236.736A2.306,2.306,0,0,0,234.43,113.755Z" transform="translate(-162.339 -75.45)"/><path class="a" d="M302.679,164.731H236.736a2.306,2.306,0,1,0,0,4.613h65.943a2.306,2.306,0,0,0,0-4.613Z" transform="translate(-162.339 -112.347)"/><path class="a" d="M302.679,218.013H236.736a2.306,2.306,0,1,0,0,4.613h65.943a2.306,2.306,0,0,0,0-4.613Z" transform="translate(-162.339 -149.244)"/><path class="a" d="M302.679,271.3H236.736a2.306,2.306,0,1,0,0,4.613h65.943a2.306,2.306,0,0,0,0-4.613Z" transform="translate(-162.339 -186.141)"/><path class="a" d="M302.679,324.578H236.736a2.306,2.306,0,1,0,0,4.613h65.943a2.306,2.306,0,0,0,0-4.613Z" transform="translate(-162.339 -223.039)"/></g></svg>