<svg xmlns="http://www.w3.org/2000/svg" width="129.915" height="129.915" viewBox="0 0 129.915 129.915"><defs><style>.a{fill:#fff;}</style></defs><g transform="translate(-1 -1)"><path class="a" d="M32.24,5a27.24,27.24,0,1,0,27.24,27.24A27.272,27.272,0,0,0,32.24,5Zm0,50.29A23.049,23.049,0,1,1,54.965,28.546L40.572,43.9l-9.559-9.561H17.572v4.191h11.7L40.672,49.921,55.179,34.447A23.077,23.077,0,0,1,32.24,55.29Z" transform="translate(4.382 4.382)"/><path class="a" d="M17,49h4.191v4.191H17Z" transform="translate(17.527 52.58)"/><path class="a" d="M17,53h4.191v4.191H17Z" transform="translate(17.527 56.961)"/><path class="a" d="M17,57h4.191v4.191H17Z" transform="translate(17.527 61.343)"/><path class="a" d="M87.862,98.244H83.671V39.572H66.908V98.244H62.717V47.954H45.954v50.29H41.763V56.336H25v46.1h79.626V27H87.862Zm-50.29,0H29.191V60.527h8.382ZM71.1,43.763h8.382V98.244H71.1ZM50.145,52.145h8.382v46.1H50.145ZM92.053,31.191h8.382V98.244H92.053Z" transform="translate(26.29 28.481)"/><path class="a" d="M9,15h4.191v4.191H9Z" transform="translate(8.763 15.336)"/><path class="a" d="M17,15h4.191v4.191H17Z" transform="translate(17.527 15.336)"/><path class="a" d="M13,15h4.191v4.191H13Z" transform="translate(13.145 15.336)"/><path class="a" d="M25,15h4.191v4.191H25Z" transform="translate(26.29 15.336)"/><path class="a" d="M21,15h4.191v4.191H21Z" transform="translate(21.908 15.336)"/><path class="a" d="M126.724,34.527V21.954h-4.191V34.527h-4.191V30.336h-4.191v4.191h-4.191V21.954H105.77V34.527H101.58V26.145H97.389v8.382h-3.25L76.475,14.656l-7.229,7.711A35.606,35.606,0,1,0,28.24,71.207V82.26a6.251,6.251,0,0,0-2.1,4.652v33.527a10.477,10.477,0,1,0,20.954,0V86.912A6.254,6.254,0,0,0,45,82.26V71.207A35.482,35.482,0,0,0,70.836,26.8l5.559-5.928L92.257,38.717h38.658V34.527ZM42.908,120.438a6.286,6.286,0,1,1-12.572,0V86.912a2.1,2.1,0,0,1,2.1-2.1h8.382a2.1,2.1,0,0,1,2.1,2.1Zm-2.1-39.813H32.431v-8.65a35.912,35.912,0,0,0,4.191.268,35.912,35.912,0,0,0,4.191-.268ZM36.622,68.053A31.431,31.431,0,1,1,68.053,36.622,31.467,31.467,0,0,1,36.622,68.053Z" transform="translate(0 0)"/></g></svg>