<svg xmlns="http://www.w3.org/2000/svg" width="23.452" height="19.06" viewBox="0 0 23.452 19.06"><defs><style>.a{fill:#fff;opacity:0.5;}</style></defs><path class="a" d="M7.458,15.236a13.6,13.6,0,0,0,13.69-13.69q0-.312-.014-.622a9.792,9.792,0,0,0,2.4-2.492,9.6,9.6,0,0,1-2.763.758,4.83,4.83,0,0,0,2.116-2.661A9.65,9.65,0,0,1,19.832-2.3,4.814,4.814,0,0,0,11.507.987a4.807,4.807,0,0,0,.125,1.1A13.661,13.661,0,0,1,1.714-2.943,4.8,4.8,0,0,0,1.063-.525,4.808,4.808,0,0,0,3.2,3.48a4.774,4.774,0,0,1-2.179-.6c0,.02,0,.04,0,.061a4.813,4.813,0,0,0,3.86,4.717,4.829,4.829,0,0,1-1.269.169,4.782,4.782,0,0,1-.9-.087,4.817,4.817,0,0,0,4.495,3.342,9.653,9.653,0,0,1-5.976,2.06,9.793,9.793,0,0,1-1.148-.067,13.621,13.621,0,0,0,7.376,2.162" transform="translate(-0.082 3.824)"/></svg>