<svg xmlns="http://www.w3.org/2000/svg" width="20.325" height="14.23" viewBox="0 0 20.325 14.23"><defs><style>.a{fill:#fff;opacity:0.5;}</style></defs><path class="a" d="M19.906-3.855a2.546,2.546,0,0,0-1.791-1.792c-1.59-.435-7.952-.435-7.952-.435s-6.362,0-7.952.419A2.6,2.6,0,0,0,.419-3.855,26.83,26.83,0,0,0,0,1.033,26.731,26.731,0,0,0,.419,5.922,2.547,2.547,0,0,0,2.21,7.713c1.607.435,7.952.435,7.952.435s6.362,0,7.952-.419a2.546,2.546,0,0,0,1.792-1.791,26.838,26.838,0,0,0,.418-4.889A25.469,25.469,0,0,0,19.906-3.855ZM8.137,4.08V-2.014l5.29,3.047Zm0,0" transform="translate(0 6.082)"/></svg>